{
  "accessors": [
    {
      "bufferView": 3,
      "componentType": 5126,
      "count": 171,
      "max": [
        6.521574020385742,
        146.48587036132813,
        4.12154483795166
      ],
      "min": [
        -6.521574020385742,
        129.92153930664063,
        1.8762553930282593
      ],
      "type": "VEC3"
    },
    {
      "bufferView": 3,
      "byteOffset": 2052,
      "componentType": 5126,
      "count": 171,
      "max": [
        1.0,
        1.0,
        1.0
      ],
      "min": [
        -1.0,
        -1.0,
        -1.0
      ],
      "type": "VEC3"
    },
    {
      "bufferView": 2,
      "componentType": 5126,
      "count": 171,
      "max": [
        0.9942539930343628,
        0.9793650507926941
      ],
      "min": [
        0.010629802942276001,
        0.04591074585914612
      ],
      "type": "VEC2"
    },
    {
      "bufferView": 1,
      "componentType": 5125,
      "count": 816,
      "type": "SCALAR"
    },
    {
      "bufferView": 3,
      "byteOffset": 4104,
      "componentType": 5126,
      "count": 993,
      "max": [
        267.0550537109375,
        470.4418029785156,
        83.24346160888672
      ],
      "min": [
        -267.0550537109375,
        0.010438675060868263,
        -91.29842376708984
      ],
      "type": "VEC3"
    },
    {
      "bufferView": 3,
      "byteOffset": 16020,
      "componentType": 5126,
      "count": 993,
      "max": [
        0.9998111128807068,
        0.9999479651451111,
        0.9999921917915344
      ],
      "min": [
        -0.999811053276062,
        -0.9999869465827942,
        -0.9999998807907104
      ],
      "type": "VEC3"
    },
    {
      "bufferView": 2,
      "byteOffset": 1368,
      "componentType": 5126,
      "count": 993,
      "max": [
        2.2039999961853027,
        2.205263376235962
      ],
      "min": [
        -1.2045726776123047,
        -1.2052634954452515
      ],
      "type": "VEC2"
    },
    {
      "bufferView": 1,
      "byteOffset": 3264,
      "componentType": 5125,
      "count": 4608,
      "type": "SCALAR"
    },
    {
      "bufferView": 3,
      "byteOffset": 27936,
      "componentType": 5126,
      "count": 265,
      "max": [
        82.92859649658203,
        458.4739990234375,
        83.80696868896484
      ],
      "min": [
        -82.92859649658203,
        156.23617553710938,
        -6.7614827156066895
      ],
      "type": "VEC3"
    },
    {
      "bufferView": 3,
      "byteOffset": 31116,
      "componentType": 5126,
      "count": 265,
      "max": [
        0.9699928760528564,
        0.9147746562957764,
        0.999747633934021
      ],
      "min": [
        -0.969992995262146,
        -0.9983329772949219,
        -0.8096356391906738
      ],
      "type": "VEC3"
    },
    {
      "bufferView": 2,
      "byteOffset": 9312,
      "componentType": 5126,
      "count": 265,
      "max": [
        0.7163923382759094,
        1.4358348846435547
      ],
      "min": [
        -0.3229355216026306,
        0.24475502967834473
      ],
      "type": "VEC2"
    },
    {
      "bufferView": 1,
      "byteOffset": 21696,
      "componentType": 5125,
      "count": 1284,
      "type": "SCALAR"
    },
    {
      "bufferView": 3,
      "byteOffset": 34296,
      "componentType": 5126,
      "count": 146,
      "max": [
        31.025394439697266,
        351.6048583984375,
        50.673736572265625
      ],
      "min": [
        -31.025392532348633,
        327.9353332519531,
        38.838985443115234
      ],
      "type": "VEC3"
    },
    {
      "bufferView": 3,
      "byteOffset": 36048,
      "componentType": 5126,
      "count": 146,
      "max": [
        0.9914448261260986,
        0.9914448261260986,
        -0.1305263340473175
      ],
      "min": [
        -0.9914448261260986,
        -0.9914448261260986,
        -0.9999999403953552
      ],
      "type": "VEC3"
    },
    {
      "bufferView": 2,
      "byteOffset": 11432,
      "componentType": 5126,
      "count": 146,
      "max": [
        0.5,
        0.5321357250213623
      ],
      "min": [
        0.5,
        0.5321357250213623
      ],
      "type": "VEC2"
    },
    {
      "bufferView": 1,
      "byteOffset": 26832,
      "componentType": 5125,
      "count": 792,
      "type": "SCALAR"
    },
    {
      "bufferView": 3,
      "byteOffset": 37800,
      "componentType": 5126,
      "count": 146,
      "max": [
        31.025394439697266,
        351.6048583984375,
        50.673736572265625
      ],
      "min": [
        -31.025392532348633,
        327.9353332519531,
        38.838985443115234
      ],
      "type": "VEC3"
    },
    {
      "bufferView": 3,
      "byteOffset": 39552,
      "componentType": 5126,
      "count": 146,
      "max": [
        0.9914448261260986,
        0.9914448261260986,
        -0.1305263340473175
      ],
      "min": [
        -0.9914448261260986,
        -0.9914448261260986,
        -0.9999999403953552
      ],
      "type": "VEC3"
    },
    {
      "bufferView": 2,
      "byteOffset": 12600,
      "componentType": 5126,
      "count": 146,
      "max": [
        0.5,
        0.5321357250213623
      ],
      "min": [
        0.5,
        0.5321357250213623
      ],
      "type": "VEC2"
    },
    {
      "bufferView": 1,
      "byteOffset": 30000,
      "componentType": 5125,
      "count": 792,
      "type": "SCALAR"
    },
    {
      "bufferView": 3,
      "byteOffset": 41304,
      "componentType": 5126,
      "count": 334,
      "max": [
        30.288475036621094,
        347.9272766113281,
        61.482757568359375
      ],
      "min": [
        -30.288461685180664,
        325.3794860839844,
        38.93502426147461
      ],
      "type": "VEC3"
    },
    {
      "bufferView": 3,
      "byteOffset": 45312,
      "componentType": 5126,
      "count": 334,
      "max": [
        1.0,
        1.0,
        1.0
      ],
      "min": [
        -1.0,
        -1.0,
        -1.0
      ],
      "type": "VEC3"
    },
    {
      "bufferView": 2,
      "byteOffset": 13768,
      "componentType": 5126,
      "count": 334,
      "max": [
        1.0,
        1.0
      ],
      "min": [
        0.0,
        0.0
      ],
      "type": "VEC2"
    },
    {
      "bufferView": 1,
      "byteOffset": 33168,
      "componentType": 5125,
      "count": 1584,
      "type": "SCALAR"
    },
    {
      "bufferView": 5,
      "componentType": 5126,
      "count": 56,
      "max": [
        3.705864429473877,
        0.03705483302474022,
        0.00522309634834528,
        0.0,
        0.0014365303795784712,
        3.705864429473877,
        0.03705865144729614,
        0.0,
        0.03705484792590141,
        0.03705871105194092,
        3.705864429473877,
        0.0,
        2.2852795124053955,
        4.174541473388672,
        3.611213445663452,
        1.0
      ],
      "min": [
        -0.037058647722005844,
        -0.03705483302474022,
        -0.005223071202635765,
        0.0,
        -0.0014365303795784712,
        -0.037058647722005844,
        -0.03566058352589607,
        0.0,
        -0.03705485165119171,
        -0.006681485567241907,
        -0.037058643996715546,
        0.0,
        -2.2852792739868164,
        -4.383054733276367,
        -4.174542427062988,
        1.0
      ],
      "type": "MAT4"
    },
    {
      "bufferView": 0,
      "componentType": 5123,
      "count": 171,
      "type": "VEC4"
    },
    {
      "bufferView": 4,
      "componentType": 5126,
      "count": 171,
      "max": [
        1.0,
        0.0,
        0.0,
        0.0
      ],
      "min": [
        1.0,
        0.0,
        0.0,
        0.0
      ],
      "type": "VEC4"
    },
    {
      "bufferView": 0,
      "byteOffset": 1368,
      "componentType": 5123,
      "count": 993,
      "type": "VEC4"
    },
    {
      "bufferView": 4,
      "byteOffset": 2736,
      "componentType": 5126,
      "count": 993,
      "max": [
        1.0,
        0.49999991059303284,
        0.0,
        0.0
      ],
      "min": [
        0.5000000596046448,
        0.0,
        0.0,
        0.0
      ],
      "type": "VEC4"
    },
    {
      "bufferView": 0,
      "byteOffset": 9312,
      "componentType": 5123,
      "count": 265,
      "type": "VEC4"
    },
    {
      "bufferView": 4,
      "byteOffset": 18624,
      "componentType": 5126,
      "count": 265,
      "max": [
        1.0,
        0.49996933341026306,
        0.015838246792554855,
        0.0
      ],
      "min": [
        0.5000306963920593,
        0.0,
        0.0,
        0.0
      ],
      "type": "VEC4"
    },
    {
      "bufferView": 0,
      "byteOffset": 11432,
      "componentType": 5123,
      "count": 146,
      "type": "VEC4"
    },
    {
      "bufferView": 4,
      "byteOffset": 22864,
      "componentType": 5126,
      "count": 146,
      "max": [
        1.0,
        0.0,
        0.0,
        0.0
      ],
      "min": [
        1.0,
        0.0,
        0.0,
        0.0
      ],
      "type": "VEC4"
    },
    {
      "bufferView": 0,
      "byteOffset": 12600,
      "componentType": 5123,
      "count": 146,
      "type": "VEC4"
    },
    {
      "bufferView": 4,
      "byteOffset": 25200,
      "componentType": 5126,
      "count": 146,
      "max": [
        1.0,
        0.0,
        0.0,
        0.0
      ],
      "min": [
        1.0,
        0.0,
        0.0,
        0.0
      ],
      "type": "VEC4"
    },
    {
      "bufferView": 0,
      "byteOffset": 13768,
      "componentType": 5123,
      "count": 334,
      "type": "VEC4"
    },
    {
      "bufferView": 4,
      "byteOffset": 27536,
      "componentType": 5126,
      "count": 334,
      "max": [
        1.0,
        0.0,
        0.0,
        0.0
      ],
      "min": [
        1.0,
        0.0,
        0.0,
        0.0
      ],
      "type": "VEC4"
    }
  ],
  "asset": {
    "extras": {
      "author": "Gorrimations (https://sketchfab.com/un_rendem123)",
      "license": "CC-BY-4.0 (http://creativecommons.org/licenses/by/4.0/)",
      "source": "https://sketchfab.com/3d-models/po-0e0b9af68f8d44e4baee41aaedee555c",
      "title": "Po"
    },
    "generator": "Sketchfab-0.3.0",
    "version": "2.0"
  },
  "bufferViews": [
    {
      "buffer": 0,
      "byteLength": 16440,
      "byteStride": 8,
      "name": "shortBufferViews",
      "target": 34962
    },
    {
      "buffer": 0,
      "byteLength": 39504,
      "byteOffset": 16440,
      "name": "floatBufferViews",
      "target": 34963
    },
    {
      "buffer": 0,
      "byteLength": 16440,
      "byteOffset": 55944,
      "byteStride": 8,
      "name": "floatBufferViews",
      "target": 34962
    },
    {
      "buffer": 0,
      "byteLength": 49320,
      "byteOffset": 72384,
      "byteStride": 12,
      "name": "floatBufferViews",
      "target": 34962
    },
    {
      "buffer": 0,
      "byteLength": 32880,
      "byteOffset": 121704,
      "byteStride": 16,
      "name": "floatBufferViews",
      "target": 34962
    },
    {
      "buffer": 0,
      "byteLength": 3584,
      "byteOffset": 154584,
      "name": "floatBufferViews"
    }
  ],
  "buffers": [
    {
      "byteLength": 158168,
      "uri": "scene.bin"
    }
  ],
  "images": [
    {
      "uri": "textures/material_baseColor.png"
    },
    {
      "uri": "textures/Face_And_TV_baseColor.png"
    },
    {
      "uri": "textures/material_2_baseColor.png"
    }
  ],
  "materials": [
    {
      "doubleSided": true,
      "name": "material",
      "pbrMetallicRoughness": {
        "baseColorTexture": {
          "index": 0
        },
        "metallicFactor": 0.0
      }
    },
    {
      "doubleSided": true,
      "name": "Face_And_TV",
      "pbrMetallicRoughness": {
        "baseColorTexture": {
          "index": 1
        },
        "metallicFactor": 0.0
      }
    },
    {
      "doubleSided": true,
      "name": "material_2",
      "pbrMetallicRoughness": {
        "baseColorTexture": {
          "index": 2
        },
        "metallicFactor": 0.0,
        "roughnessFactor": 0.25
      }
    }
  ],
  "meshes": [
    {
      "name": "Antenna_Fur_0",
      "primitives": [
        {
          "attributes": {
            "JOINTS_0": 25,
            "NORMAL": 1,
            "POSITION": 0,
            "TEXCOORD_0": 2,
            "WEIGHTS_0": 26
          },
          "indices": 3,
          "material": 0,
          "mode": 4
        }
      ]
    },
    {
      "name": "Body_Fur_0",
      "primitives": [
        {
          "attributes": {
            "JOINTS_0": 27,
            "NORMAL": 5,
            "POSITION": 4,
            "TEXCOORD_0": 6,
            "WEIGHTS_0": 28
          },
          "indices": 7,
          "material": 0,
          "mode": 4
        }
      ]
    },
    {
      "name": "Body_Face And TV_0",
      "primitives": [
        {
          "attributes": {
            "JOINTS_0": 29,
            "NORMAL": 9,
            "POSITION": 8,
            "TEXCOORD_0": 10,
            "WEIGHTS_0": 30
          },
          "indices": 11,
          "material": 1,
          "mode": 4
        }
      ]
    },
    {
      "name": "Eyelid Down_Face And TV_0",
      "primitives": [
        {
          "attributes": {
            "JOINTS_0": 31,
            "NORMAL": 13,
            "POSITION": 12,
            "TEXCOORD_0": 14,
            "WEIGHTS_0": 32
          },
          "indices": 15,
          "material": 1,
          "mode": 4
        }
      ]
    },
    {
      "name": "Eyelid Up_Face And TV_0",
      "primitives": [
        {
          "attributes": {
            "JOINTS_0": 33,
            "NORMAL": 17,
            "POSITION": 16,
            "TEXCOORD_0": 18,
            "WEIGHTS_0": 34
          },
          "indices": 19,
          "material": 1,
          "mode": 4
        }
      ]
    },
    {
      "name": "Eyes_Eye_0",
      "primitives": [
        {
          "attributes": {
            "JOINTS_0": 35,
            "NORMAL": 21,
            "POSITION": 20,
            "TEXCOORD_0": 22,
            "WEIGHTS_0": 36
          },
          "indices": 23,
          "material": 2,
          "mode": 4
        }
      ]
    }
  ],
  "nodes": [
    {
      "children": [
        1
      ],
      "matrix": [
        1.0,
        0.0,
        0.0,
        0.0,
        0.0,
        2.220446049250313e-16,
        -1.0,
        0.0,
        0.0,
        1.0,
        2.220446049250313e-16,
        0.0,
        0.0,
        0.0,
        0.0,
        1.0
      ],
      "name": "Sketchfab_model"
    },
    {
      "children": [
        2
      ],
      "matrix": [
        0.009999999776482582,
        0.0,
        0.0,
        0.0,
        0.0,
        0.0,
        0.009999999776482582,
        0.0,
        0.0,
        -0.009999999776482582,
        0.0,
        0.0,
        0.0,
        0.0,
        0.0,
        1.0
      ],
      "name": "a4ab3f9d28e240ea8fb5b4351b7ae784.fbx"
    },
    {
      "children": [
        3
      ],
      "name": "RootNode"
    },
    {
      "children": [
        4
      ],
      "matrix": [
        100.0,
        0.0,
        0.0,
        0.0,
        0.0,
        -2.8212996916465727e-05,
        -99.99999999999602,
        0.0,
        0.0,
        99.99999999999602,
        -2.8212996916465727e-05,
        0.0,
        0.0,
        0.0,
        0.0,
        1.0
      ],
      "name": "Po"
    },
    {
      "children": [
        5,
        7,
        9,
        10,
        12,
        14,
        16,
        6,
        8,
        11,
        13,
        15
      ],
      "name": "Object_4"
    },
    {
      "children": [
        17
      ],
      "name": "_rootJoint"
    },
    {
      "matrix": [
        3.7058643996715546,
        0.0,
        0.0,
        0.0,
        0.0,
        -6.037619413872416e-07,
        -3.705864399671554,
        0.0,
        0.0,
        3.705864399671554,
        -6.037619413872416e-07,
        0.0,
        0.0,
        481.4715880380523,
        11.113521991195448,
        1.0
      ],
      "name": "Object_6"
    },
    {
      "mesh": 0,
      "name": "Object_7",
      "skin": 0
    },
    {
      "matrix": [
        100.0,
        0.0,
        0.0,
        0.0,
        0.0,
        -1.6292067822037746e-05,
        -99.99999999999999,
        0.0,
        0.0,
        99.99999999999999,
        -1.6292067822037746e-05,
        0.0,
        0.0,
        0.0,
        0.0,
        1.0
      ],
      "name": "Object_8"
    },
    {
      "mesh": 1,
      "name": "Object_9",
      "skin": 0
    },
    {
      "mesh": 2,
      "name": "Object_10",
      "skin": 0
    },
    {
      "matrix": [
        14.540615677833557,
        0.0,
        0.0,
        0.0,
        0.0,
        14.54061567783366,
        -1.733375653626063e-06,
        0.0,
        0.0,
        1.733375653626063e-06,
        14.54061567783366,
        0.0,
        -21.578338742256165,
        417.4542051659762,
        62.25963586266747,
        1.0
      ],
      "name": "Object_11"
    },
    {
      "mesh": 3,
      "name": "Object_12",
      "skin": 0
    },
    {
      "matrix": [
        14.540615677833557,
        0.0,
        0.0,
        0.0,
        0.0,
        14.54061567783366,
        -1.733375653626063e-06,
        0.0,
        0.0,
        1.733375653626063e-06,
        14.54061567783366,
        0.0,
        -21.578338742256165,
        417.4542051659762,
        62.25963586266747,
        1.0
      ],
      "name": "Object_13"
    },
    {
      "mesh": 4,
      "name": "Object_14",
      "skin": 0
    },
    {
      "matrix": [
        13.979727029800415,
        0.0,
        0.0,
        0.0,
        0.0,
        13.979727029800515,
        -1.6665134600135417e-06,
        0.0,
        0.0,
        1.6665134600135417e-06,
        13.979727029800515,
        0.0,
        -21.578334271907806,
        417.45425284969104,
        62.25962990219523,
        1.0
      ],
      "name": "Object_15"
    },
    {
      "mesh": 5,
      "name": "Object_16",
      "skin": 0
    },
    {
      "children": [
        18
      ],
      "name": "Move All_00",
      "rotation": [
        7.467918243881338e-30,
        2.6469779601696886e-23,
        1.0,
        -7.549790126404332e-08
      ]
    },
    {
      "children": [
        19,
        62,
        67
      ],
      "name": "Body 1_01",
      "rotation": [
        1.0852198784050415e-07,
        0.7306186556816101,
        0.6827857494354248,
        -1.917047853794429e-09
      ],
      "scale": [
        1.0,
        0.9999999403953552,
        1.0
      ],
      "translation": [
        4.257472152602304e-09,
        -0.030015962198376656,
        1.6058127880096436
      ]
    },
    {
      "children": [
        20,
        28,
        36
      ],
      "name": "Body 2_02",
      "rotation": [
        0.006666261702775955,
        7.33842426825504e-08,
        -7.4489179269221495e-09,
        0.9999777674674988
      ],
      "scale": [
        1.0,
        0.9999999403953552,
        0.9999998211860657
      ],
      "translation": [
        -1.2212453270876722e-15,
        0.8020583987236023,
        -4.284083487959833e-08
      ]
    },
    {
      "children": [
        21
      ],
      "name": "Arm R1_03",
      "rotation": [
        0.5189865827560425,
        -0.5150616765022278,
        -0.4749487042427063,
        -0.4896816313266754
      ],
      "scale": [
        1.000000238418579,
        1.0,
        1.0
      ],
      "translation": [
        -0.615715742111206,
        0.7892096638679504,
        0.022991202771663666
      ]
    },
    {
      "children": [
        22
      ],
      "name": "Arm R2_04",
      "rotation": [
        0.0001546465209685266,
        -3.4284789762750734e-07,
        0.013234059326350689,
        0.999912440776825
      ],
      "scale": [
        0.9999997615814209,
        0.9999998211860657,
        1.0
      ],
      "translation": [
        -2.2351741790771484e-08,
        0.755616307258606,
        -1.200241968035698e-07
      ]
    },
    {
      "children": [
        23,
        26
      ],
      "name": "Hand R_05",
      "rotation": [
        0.0648522600531578,
        0.005925151985138655,
        0.002613744931295514,
        0.997873842716217
      ],
      "scale": [
        0.9999996423721313,
        0.9999996423721313,
        0.9999998211860657
      ],
      "translation": [
        -3.725290298461914e-09,
        0.7555178999900818,
        -2.782326191663742e-08
      ]
    },
    {
      "children": [
        24
      ],
      "name": "Fingers R1_06",
      "rotation": [
        -0.051418405026197433,
        -0.019846046343445778,
        -0.006147332955151796,
        0.9984610676765442
      ],
      "scale": [
        1.0,
        1.0,
        0.9999997019767761
      ],
      "translation": [
        0.000858846353366971,
        0.3501746952533722,
        -0.008457345888018608
      ]
    },
    {
      "children": [
        25
      ],
      "name": "Fingers R2_07",
      "rotation": [
        1.7579327504790854e-06,
        -1.7614873968341271e-06,
        4.253523400166159e-08,
        1.0
      ],
      "scale": [
        1.0,
        1.0000001192092896,
        1.0000001192092896
      ],
      "translation": [
        -2.0954757928848267e-08,
        0.13529032468795776,
        -6.426125764846802e-08
      ]
    },
    {
      "name": "Fingers R2_end_037",
      "rotation": [
        -3.7573355836241197e-19,
        -3.469446951953614e-18,
        -1.7567992721646223e-19,
        1.0
      ],
      "translation": [
        1.3877787807814457e-17,
        0.13529017567634583,
        0.0
      ]
    },
    {
      "children": [
        27
      ],
      "name": "Thumb R_08",
      "rotation": [
        -0.05019557103514671,
        0.04972168803215027,
        0.7002647519111633,
        0.7103783488273621
      ],
      "scale": [
        0.9999998211860657,
        0.9999998211860657,
        0.9999996423721313
      ],
      "translation": [
        -0.18209871649742126,
        0.16437169909477234,
        0.010105482302606106
      ]
    },
    {
      "name": "Thumb R_end_038",
      "rotation": [
        0.0,
        -2.919268132191739e-24,
        5.293955920339377e-23,
        1.0
      ],
      "translation": [
        0.0,
        0.16913914680480957,
        4.440892098500626e-16
      ]
    },
    {
      "children": [
        29
      ],
      "name": "Arm L1_09",
      "rotation": [
        0.5189865827560425,
        0.5150616765022278,
        0.4749487042427063,
        -0.4896816313266754
      ],
      "scale": [
        1.000000238418579,
        1.0,
        1.0
      ],
      "translation": [
        0.6157156825065613,
        0.7892095446586609,
        0.022991187870502472
      ]
    },
    {
      "children": [
        30
      ],
      "name": "Arm L2_010",
      "rotation": [
        0.0001546508865430951,
        3.522529823385412e-07,
        -0.01323407981544733,
        0.999912440776825
      ],
      "scale": [
        0.9999997615814209,
        0.9999998211860657,
        1.0
      ],
      "translation": [
        2.2351741790771484e-08,
        0.7556161880493164,
        -6.472691893577576e-08
      ]
    },
    {
      "children": [
        31,
        34
      ],
      "name": "Hand L_011",
      "rotation": [
        0.06485192477703094,
        -0.005925503093749285,
        -0.0026137055829167366,
        0.9978739023208618
      ],
      "scale": [
        0.9999996423721313,
        0.9999995231628418,
        0.9999998211860657
      ],
      "translation": [
        5.587935447692871e-09,
        0.75551837682724,
        1.4260876923799515e-07
      ]
    },
    {
      "children": [
        32
      ],
      "name": "Fingers L1_012",
      "rotation": [
        -0.051418084651231766,
        0.019846370443701744,
        0.006147315260022879,
        0.9984610676765442
      ],
      "scale": [
        1.0,
        0.9999999403953552,
        0.9999997019767761
      ],
      "translation": [
        -0.0008588748751208186,
        0.3501746952533722,
        -0.008456820622086525
      ]
    },
    {
      "children": [
        33
      ],
      "name": "Fingers L2_013",
      "rotation": [
        1.7964300695894053e-06,
        1.794555714695889e-06,
        -1.3482428506961242e-08,
        1.0
      ],
      "scale": [
        1.0,
        1.0000001192092896,
        1.0000001192092896
      ],
      "translation": [
        1.210719347000122e-08,
        0.13529039919376373,
        -7.450580596923828e-08
      ]
    },
    {
      "name": "Fingers L2_end_039",
      "rotation": [
        7.09210098824185e-18,
        3.469446951953614e-18,
        -1.8792220028224704e-19,
        1.0
      ],
      "translation": [
        0.0,
        0.13529017567634583,
        0.0
      ]
    },
    {
      "children": [
        35
      ],
      "name": "Thumb L_014",
      "rotation": [
        -0.0501955971121788,
        -0.04972120374441147,
        -0.7002647519111633,
        0.7103784084320068
      ],
      "scale": [
        1.0,
        0.9999998807907104,
        0.9999996423721313
      ],
      "translation": [
        0.18209873139858246,
        0.16437116265296936,
        0.010105560533702374
      ]
    },
    {
      "name": "Thumb L_end_040",
      "rotation": [
        1.9852334701272664e-23,
        -2.6639286483136703e-24,
        -8.271806125530277e-25,
        1.0
      ],
      "translation": [
        0.0,
        0.16913911700248718,
        -4.440892098500626e-16
      ]
    },
    {
      "children": [
        37,
        39,
        41,
        43,
        45,
        47,
        49,
        51,
        53,
        55,
        58,
        60
      ],
      "name": "Head_015",
      "rotation": [
        -0.03560175374150276,
        4.448939439072319e-09,
        4.405656284234283e-09,
        0.999366044998169
      ],
      "scale": [
        1.0,
        1.0000001192092896,
        1.0000001192092896
      ],
      "translation": [
        -1.229814472480939e-09,
        1.1368614435195923,
        -0.010210692882537842
      ]
    },
    {
      "children": [
        38
      ],
      "name": "Mouth R_016",
      "rotation": [
        -0.004886171314865351,
        3.121045571847212e-15,
        -1.4577384082687305e-15,
        0.9999880790710449
      ],
      "scale": [
        1.0,
        0.9999999403953552,
        0.9999998807907104
      ],
      "translation": [
        -0.21081660687923431,
        0.31623896956443787,
        0.5425845384597778
      ]
    },
    {
      "name": "Mouth R_end_041",
      "rotation": [
        -2.6469779601696886e-23,
        -1.3234889800848443e-23,
        1.3392807132299206e-24,
        1.0
      ],
      "translation": [
        -2.7755575615628914e-17,
        0.11604094505310059,
        -1.1102230246251565e-16
      ]
    },
    {
      "children": [
        40
      ],
      "name": "Mouth L_017",
      "rotation": [
        -0.004886171314865351,
        3.121045571847212e-15,
        -1.4577384082687305e-15,
        0.9999880790710449
      ],
      "scale": [
        1.0,
        0.9999999403953552,
        0.9999998807907104
      ],
      "translation": [
        0.21081657707691193,
        0.3162389397621155,
        0.5425845980644226
      ]
    },
    {
      "name": "Mouth L_end_042",
      "rotation": [
        -2.6469779601696886e-23,
        -1.3234889800848443e-23,
        1.3392807132299206e-24,
        1.0
      ],
      "translation": [
        2.7755575615628914e-17,
        0.11604094505310059,
        0.0
      ]
    },
    {
      "children": [
        42
      ],
      "name": "Eyelid Down R_018",
      "rotation": [
        0.9999880790710449,
        -8.289627169344915e-16,
        -2.5999485733557617e-15,
        0.004886444658041
      ],
      "scale": [
        1.0,
        0.9999999403953552,
        0.9999999403953552
      ],
      "translation": [
        -0.2357833832502365,
        0.6395614743232727,
        0.5103643536567688
      ]
    },
    {
      "name": "Eyelid Down R_end_043",
      "rotation": [
        2.6469779601696886e-23,
        1.3234889800848443e-23,
        1.3519485571903217e-23,
        1.0
      ],
      "translation": [
        0.0,
        0.14540624618530273,
        0.0
      ]
    },
    {
      "children": [
        44
      ],
      "name": "Eye R_019",
      "rotation": [
        -1.0676631490014188e-07,
        0.7105534672737122,
        0.7036432027816772,
        5.242483114287211e-10
      ],
      "scale": [
        1.0,
        0.9999998807907104,
        0.9999998807907104
      ],
      "translation": [
        -0.2357833832502365,
        0.6395614743232727,
        0.5103644132614136
      ]
    },
    {
      "name": "Eye R_end_044",
      "rotation": [
        1.6543612251060553e-24,
        -1.4340468893184828e-23,
        0.0,
        1.0
      ],
      "translation": [
        -2.7755575615628914e-17,
        0.13979727029800415,
        0.0
      ]
    },
    {
      "children": [
        46
      ],
      "name": "Eyelid Up R_020",
      "rotation": [
        -0.004886281210929155,
        2.637577800279297e-15,
        -9.221946275871475e-16,
        0.9999880790710449
      ],
      "scale": [
        1.0,
        0.9999999403953552,
        0.9999998807907104
      ],
      "translation": [
        -0.2357833832502365,
        0.6395614743232727,
        0.5103644132614136
      ]
    },
    {
      "name": "Eyelid Up R_end_045",
      "rotation": [
        0.0,
        -0.0,
        -1.4596122935348854e-23,
        1.0
      ],
      "translation": [
        0.0,
        0.14540624618530273,
        1.1102230246251565e-16
      ]
    },
    {
      "children": [
        48
      ],
      "name": "Eyelid Down L_021",
      "rotation": [
        0.9999880790710449,
        -8.289627169344915e-16,
        -2.5999485733557617e-15,
        0.004886444658041
      ],
      "scale": [
        1.0,
        0.9999999403953552,
        0.9999999403953552
      ],
      "translation": [
        0.2357833832502365,
        0.6395614743232727,
        0.5103643536567688
      ]
    },
    {
      "name": "Eyelid Down L_end_046",
      "rotation": [
        2.6469779601696886e-23,
        1.3234889800848443e-23,
        1.3519485571903217e-23,
        1.0
      ],
      "translation": [
        0.0,
        0.14540624618530273,
        1.1102230246251565e-16
      ]
    },
    {
      "children": [
        50
      ],
      "name": "Eye L_022",
      "rotation": [
        -1.0676631490014188e-07,
        0.7105534672737122,
        0.7036432027816772,
        5.242483114287211e-10
      ],
      "scale": [
        1.0,
        0.9999998807907104,
        0.9999998807907104
      ],
      "translation": [
        0.2357833832502365,
        0.6395614743232727,
        0.5103644132614136
      ]
    },
    {
      "name": "Eye L_end_047",
      "rotation": [
        1.6543612251060553e-24,
        -1.4340468893184828e-23,
        0.0,
        1.0
      ],
      "translation": [
        2.7755575615628914e-17,
        0.13979727029800415,
        0.0
      ]
    },
    {
      "children": [
        52
      ],
      "name": "Eyelid Up L_023",
      "rotation": [
        -0.004886281210929155,
        2.637577800279297e-15,
        -9.221946275871475e-16,
        0.9999880790710449
      ],
      "scale": [
        1.0,
        0.9999999403953552,
        0.9999998807907104
      ],
      "translation": [
        0.2357833832502365,
        0.6395614743232727,
        0.5103644132614136
      ]
    },
    {
      "name": "Eyelid Up L_end_048",
      "rotation": [
        0.0,
        -0.0,
        -1.4596122935348854e-23,
        1.0
      ],
      "translation": [
        0.0,
        0.14540624618530273,
        0.0
      ]
    },
    {
      "children": [
        54
      ],
      "name": "Mouth Down_024",
      "rotation": [
        0.8672741055488586,
        1.7803830587581615e-07,
        3.1016156754049007e-07,
        0.49783092737197876
      ],
      "scale": [
        1.0,
        1.0,
        0.9999996423721313
      ],
      "translation": [
        4.618527782440651e-14,
        0.30584853887557983,
        0.5026841163635254
      ]
    },
    {
      "name": "Mouth Down_end_049",
      "rotation": [
        5.551115123125783e-17,
        -2.6469779601696886e-23,
        7.940933880509066e-23,
        1.0
      ],
      "translation": [
        0.0,
        0.16419968008995056,
        4.440892098500626e-16
      ]
    },
    {
      "children": [
        56
      ],
      "name": "Mouth Up_025",
      "rotation": [
        0.5993863940238953,
        1.908452077259426e-06,
        1.4290534409155953e-06,
        0.8004598021507263
      ],
      "scale": [
        1.0,
        1.0,
        0.9999998807907104
      ],
      "translation": [
        1.1723955140041653e-13,
        0.30584853887557983,
        0.5026841163635254
      ]
    },
    {
      "children": [
        57
      ],
      "name": "Nose_026",
      "rotation": [
        -0.6032905578613281,
        -1.9014461258848314e-06,
        -1.438362232875079e-06,
        0.7975214719772339
      ],
      "scale": [
        1.0,
        1.0,
        0.9999999403953552
      ],
      "translation": [
        6.737735702699865e-07,
        0.30341261625289917,
        -0.14129994809627533
      ]
    },
    {
      "name": "Nose_end_050",
      "rotation": [
        0.0,
        -2.6469779601696886e-23,
        1.803981633100066e-23,
        1.0
      ],
      "translation": [
        0.0,
        0.14540624618530273,
        1.1102230246251565e-16
      ]
    },
    {
      "children": [
        59
      ],
      "name": "Frown L_027",
      "rotation": [
        -0.004886244423687458,
        2.7884464384047864e-15,
        -1.0905317320629806e-15,
        0.9999880790710449
      ],
      "scale": [
        1.0,
        0.9999999403953552,
        0.9999998807907104
      ],
      "translation": [
        0.20928339660167694,
        0.8488295078277588,
        0.5866302847862244
      ]
    },
    {
      "name": "Frown L_end_051",
      "rotation": [
        -6.617444900424222e-24,
        -0.0,
        7.125359305138012e-24,
        1.0
      ],
      "translation": [
        2.7755575615628914e-17,
        0.17669677734375,
        0.0
      ]
    },
    {
      "children": [
        61
      ],
      "name": "Frown R_028",
      "rotation": [
        -0.004886244423687458,
        2.7884464384047864e-15,
        -1.0905317320629806e-15,
        0.9999880790710449
      ],
      "scale": [
        1.0,
        0.9999999403953552,
        0.9999998807907104
      ],
      "translation": [
        -0.20928339660167694,
        0.8488295078277588,
        0.5866302847862244
      ]
    },
    {
      "name": "Frown R_end_052",
      "rotation": [
        -6.617444900424222e-24,
        -0.0,
        7.125359305138012e-24,
        1.0
      ],
      "translation": [
        2.7755575615628914e-17,
        0.17669677734375,
        0.0
      ]
    },
    {
      "children": [
        63
      ],
      "name": "Leg R1_029",
      "rotation": [
        0.9983856081962585,
        -0.01132070180028677,
        -0.010579640045762062,
        -0.054644875228405
      ],
      "scale": [
        1.0,
        1.0,
        0.9999989867210388
      ],
      "translation": [
        -0.3999181091785431,
        -0.44171446561813354,
        0.2333611696958542
      ]
    },
    {
      "children": [
        64
      ],
      "name": "Leg R2_030",
      "rotation": [
        0.002234597923234105,
        0.005517924670130014,
        -0.0024400285910815,
        0.9999793171882629
      ],
      "scale": [
        1.0000001192092896,
        1.0000001192092896,
        0.9999998211860657
      ],
      "translation": [
        6.402842700481415e-08,
        0.3976377844810486,
        6.51925802230835e-09
      ]
    },
    {
      "children": [
        65
      ],
      "name": "Foot R_031",
      "rotation": [
        -0.0026994794607162476,
        -0.6401178240776062,
        0.768206000328064,
        0.010082348249852657
      ],
      "scale": [
        0.9999998807907104,
        1.0000004768371582,
        1.0
      ],
      "translation": [
        4.708999767899513e-08,
        0.4986766576766968,
        3.725290298461914e-09
      ]
    },
    {
      "children": [
        66
      ],
      "name": "Toe R_032",
      "rotation": [
        -1.7709591304537753e-07,
        0.7071070671081543,
        0.7071065306663513,
        -2.8386588724060857e-07
      ],
      "scale": [
        1.0000001192092896,
        0.9999998807907104,
        0.9999999403953552
      ],
      "translation": [
        1.5878335091201734e-08,
        0.6008134484291077,
        -0.09661262482404709
      ]
    },
    {
      "name": "Toe R_end_053",
      "rotation": [
        -5.293955920339377e-23,
        0.0,
        -5.360808411068875e-24,
        1.0
      ],
      "translation": [
        0.0,
        0.4143545925617218,
        -1.1102230246251565e-16
      ]
    },
    {
      "children": [
        68
      ],
      "name": "Leg L1_033",
      "rotation": [
        0.9983856081962585,
        0.01132064126431942,
        0.01057935506105423,
        -0.0546448715031147
      ],
      "scale": [
        0.9999999403953552,
        1.0,
        0.9999980330467224
      ],
      "translation": [
        0.3999180793762207,
        -0.44171440601348877,
        0.2333611100912094
      ]
    },
    {
      "children": [
        69
      ],
      "name": "Leg L2_034",
      "rotation": [
        0.002234626328572631,
        -0.005517817102372646,
        0.002439856296405196,
        0.9999793171882629
      ],
      "scale": [
        1.0,
        1.000000238418579,
        1.0
      ],
      "translation": [
        9.313225746154785e-10,
        0.3976377248764038,
        1.862645149230957e-09
      ]
    },
    {
      "children": [
        70
      ],
      "name": "Foot L_035",
      "rotation": [
        0.0026995206717401743,
        -0.6401177644729614,
        0.7682058811187744,
        -0.010082467459142208
      ],
      "scale": [
        0.9999998807907104,
        1.0000001192092896,
        0.9999998807907104
      ],
      "translation": [
        -4.99130692332983e-09,
        0.4986766278743744,
        -2.7755575615628914e-17
      ]
    },
    {
      "children": [
        71
      ],
      "name": "Toe L_036",
      "rotation": [
        1.6054406160037615e-07,
        0.70710688829422,
        0.7071067094802856,
        2.8340090807432716e-07
      ],
      "scale": [
        1.0000001192092896,
        0.9999998807907104,
        0.9999998211860657
      ],
      "translation": [
        -1.5668694786086235e-08,
        0.6008141040802002,
        -0.09661261737346649
      ]
    },
    {
      "name": "Toe L_end_054",
      "rotation": [
        2.6469779601696886e-23,
        -5.293955920339377e-23,
        -3.847886790825326e-24,
        1.0
      ],
      "translation": [
        5.551115123125783e-17,
        0.4143546223640442,
        1.1102230246251565e-16
      ]
    }
  ],
  "samplers": [
    {
      "magFilter": 9729,
      "minFilter": 9987,
      "wrapS": 10497,
      "wrapT": 10497
    }
  ],
  "scene": 0,
  "scenes": [
    {
      "name": "Sketchfab_Scene",
      "nodes": [
        0
      ]
    }
  ],
  "skins": [
    {
      "inverseBindMatrices": 24,
      "joints": [
        5,
        17,
        18,
        19,
        20,
        21,
        22,
        23,
        24,
        25,
        26,
        27,
        28,
        29,
        30,
        31,
        32,
        33,
        34,
        35,
        36,
        37,
        38,
        39,
        40,
        41,
        42,
        43,
        44,
        45,
        46,
        47,
        48,
        49,
        50,
        51,
        52,
        53,
        54,
        55,
        56,
        57,
        58,
        59,
        60,
        61,
        62,
        63,
        64,
        65,
        66,
        67,
        68,
        69,
        70,
        71
      ],
      "skeleton": 5
    }
  ],
  "textures": [
    {
      "sampler": 0,
      "source": 0
    },
    {
      "sampler": 0,
      "source": 1
    },
    {
      "sampler": 0,
      "source": 2
    }
  ]
}
