{
  "accessors": [
    {
      "bufferView": 3,
      "componentType": 5126,
      "count": 110,
      "max": [
        2.5844712257385254,
        151.24227905273438,
        5.650489330291748
      ],
      "min": [
        -1.8821662664413452,
        129.47447204589844,
        -2.0928988456726074
      ],
      "type": "VEC3"
    },
    {
      "bufferView": 3,
      "byteOffset": 1320,
      "componentType": 5126,
      "count": 110,
      "max": [
        0.9993205666542053,
        1.0,
        0.9992430806159973
      ],
      "min": [
        -0.9993205666542053,
        -0.9998223781585693,
        -0.9992430806159973
      ],
      "type": "VEC3"
    },
    {
      "bufferView": 2,
      "componentType": 5126,
      "count": 110,
      "max": [
        0.35170048475265503,
        1.131345510482788
      ],
      "min": [
        -0.04078841209411621,
        -0.13134559988975525
      ],
      "type": "VEC2"
    },
    {
      "bufferView": 1,
      "componentType": 5125,
      "count": 549,
      "type": "SCALAR"
    },
    {
      "bufferView": 3,
      "byteOffset": 2640,
      "componentType": 5126,
      "count": 993,
      "max": [
        267.0550537109375,
        470.4417724609375,
        83.24346160888672
      ],
      "min": [
        -267.0550537109375,
        0.010438527911901474,
        -91.29839324951172
      ],
      "type": "VEC3"
    },
    {
      "bufferView": 3,
      "byteOffset": 14556,
      "componentType": 5126,
      "count": 993,
      "max": [
        0.9998111128807068,
        0.9999479651451111,
        0.9999921917915344
      ],
      "min": [
        -0.999811053276062,
        -0.9999869465827942,
        -0.9999998807907104
      ],
      "type": "VEC3"
    },
    {
      "bufferView": 2,
      "byteOffset": 880,
      "componentType": 5126,
      "count": 993,
      "max": [
        2.2039999961853027,
        2.205263376235962
      ],
      "min": [
        -1.2045726776123047,
        -1.2052634954452515
      ],
      "type": "VEC2"
    },
    {
      "bufferView": 1,
      "byteOffset": 2196,
      "componentType": 5125,
      "count": 4608,
      "type": "SCALAR"
    },
    {
      "bufferView": 3,
      "byteOffset": 26472,
      "componentType": 5126,
      "count": 265,
      "max": [
        82.92859649658203,
        458.4739990234375,
        83.80699920654297
      ],
      "min": [
        -82.92859649658203,
        156.2361602783203,
        -6.761417388916016
      ],
      "type": "VEC3"
    },
    {
      "bufferView": 3,
      "byteOffset": 29652,
      "componentType": 5126,
      "count": 265,
      "max": [
        0.9699928760528564,
        0.9147745966911316,
        0.999747633934021
      ],
      "min": [
        -0.969992995262146,
        -0.9983329772949219,
        -0.8096356391906738
      ],
      "type": "VEC3"
    },
    {
      "bufferView": 2,
      "byteOffset": 8824,
      "componentType": 5126,
      "count": 265,
      "max": [
        0.7163923382759094,
        1.4358348846435547
      ],
      "min": [
        -0.3229355216026306,
        0.24475502967834473
      ],
      "type": "VEC2"
    },
    {
      "bufferView": 1,
      "byteOffset": 20628,
      "componentType": 5125,
      "count": 1284,
      "type": "SCALAR"
    },
    {
      "bufferView": 3,
      "byteOffset": 32832,
      "componentType": 5126,
      "count": 146,
      "max": [
        31.025394439697266,
        351.6048278808594,
        50.67378616333008
      ],
      "min": [
        -31.025392532348633,
        327.9353332519531,
        38.83903503417969
      ],
      "type": "VEC3"
    },
    {
      "bufferView": 3,
      "byteOffset": 34584,
      "componentType": 5126,
      "count": 146,
      "max": [
        0.9914448261260986,
        0.9914448261260986,
        -0.1305263191461563
      ],
      "min": [
        -0.9914448261260986,
        -0.9914447665214539,
        -0.9999999403953552
      ],
      "type": "VEC3"
    },
    {
      "bufferView": 2,
      "byteOffset": 10944,
      "componentType": 5126,
      "count": 146,
      "max": [
        0.5,
        0.5321357250213623
      ],
      "min": [
        0.5,
        0.5321357250213623
      ],
      "type": "VEC2"
    },
    {
      "bufferView": 1,
      "byteOffset": 25764,
      "componentType": 5125,
      "count": 792,
      "type": "SCALAR"
    },
    {
      "bufferView": 3,
      "byteOffset": 36336,
      "componentType": 5126,
      "count": 146,
      "max": [
        31.025394439697266,
        351.6048278808594,
        50.67378616333008
      ],
      "min": [
        -31.025392532348633,
        327.9353332519531,
        38.83903503417969
      ],
      "type": "VEC3"
    },
    {
      "bufferView": 3,
      "byteOffset": 38088,
      "componentType": 5126,
      "count": 146,
      "max": [
        0.9914448261260986,
        0.9914448261260986,
        -0.1305263191461563
      ],
      "min": [
        -0.9914448261260986,
        -0.9914447665214539,
        -0.9999999403953552
      ],
      "type": "VEC3"
    },
    {
      "bufferView": 2,
      "byteOffset": 12112,
      "componentType": 5126,
      "count": 146,
      "max": [
        0.5,
        0.5321357250213623
      ],
      "min": [
        0.5,
        0.5321357250213623
      ],
      "type": "VEC2"
    },
    {
      "bufferView": 1,
      "byteOffset": 28932,
      "componentType": 5125,
      "count": 792,
      "type": "SCALAR"
    },
    {
      "bufferView": 3,
      "byteOffset": 39840,
      "componentType": 5126,
      "count": 334,
      "max": [
        30.288469314575195,
        347.92718505859375,
        61.482810974121094
      ],
      "min": [
        -30.288463592529297,
        325.37939453125,
        38.935081481933594
      ],
      "type": "VEC3"
    },
    {
      "bufferView": 3,
      "byteOffset": 43848,
      "componentType": 5126,
      "count": 334,
      "max": [
        1.0,
        1.0,
        1.0
      ],
      "min": [
        -1.0,
        -1.0,
        -1.0
      ],
      "type": "VEC3"
    },
    {
      "bufferView": 2,
      "byteOffset": 13280,
      "componentType": 5126,
      "count": 334,
      "max": [
        1.0,
        1.0
      ],
      "min": [
        0.0,
        0.0
      ],
      "type": "VEC2"
    },
    {
      "bufferView": 1,
      "byteOffset": 32100,
      "componentType": 5125,
      "count": 1584,
      "type": "SCALAR"
    },
    {
      "bufferView": 5,
      "componentType": 5126,
      "count": 56,
      "max": [
        3.7058651447296143,
        0.037054844200611115,
        0.005223409738391638,
        0.0,
        0.0014364739181473851,
        3.7058651447296143,
        0.03705863654613495,
        0.0,
        0.03705485537648201,
        0.03705865517258644,
        3.7058651447296143,
        0.0,
        2.2852795124053955,
        4.174540042877197,
        3.6112124919891357,
        1.0
      ],
      "min": [
        -0.03705865144729614,
        -0.037054844200611115,
        -0.005223414395004511,
        0.0,
        -0.0014364738017320633,
        -0.03705863282084465,
        -0.03566056862473488,
        0.0,
        -0.03705485537648201,
        -0.006681486964225769,
        -0.037058643996715546,
        0.0,
        -2.2852797508239746,
        -4.383052825927734,
        -4.174540042877197,
        1.0
      ],
      "type": "MAT4"
    },
    {
      "bufferView": 0,
      "componentType": 5123,
      "count": 110,
      "type": "VEC4"
    },
    {
      "bufferView": 4,
      "componentType": 5126,
      "count": 110,
      "max": [
        1.0,
        0.0,
        0.0,
        0.0
      ],
      "min": [
        1.0,
        0.0,
        0.0,
        0.0
      ],
      "type": "VEC4"
    },
    {
      "bufferView": 0,
      "byteOffset": 880,
      "componentType": 5123,
      "count": 993,
      "type": "VEC4"
    },
    {
      "bufferView": 4,
      "byteOffset": 1760,
      "componentType": 5126,
      "count": 993,
      "max": [
        1.0,
        0.49999991059303284,
        0.0,
        0.0
      ],
      "min": [
        0.5000000596046448,
        0.0,
        0.0,
        0.0
      ],
      "type": "VEC4"
    },
    {
      "bufferView": 0,
      "byteOffset": 8824,
      "componentType": 5123,
      "count": 265,
      "type": "VEC4"
    },
    {
      "bufferView": 4,
      "byteOffset": 17648,
      "componentType": 5126,
      "count": 265,
      "max": [
        1.0,
        0.49996933341026306,
        0.015838246792554855,
        0.0
      ],
      "min": [
        0.5000306963920593,
        0.0,
        0.0,
        0.0
      ],
      "type": "VEC4"
    },
    {
      "bufferView": 0,
      "byteOffset": 10944,
      "componentType": 5123,
      "count": 146,
      "type": "VEC4"
    },
    {
      "bufferView": 4,
      "byteOffset": 21888,
      "componentType": 5126,
      "count": 146,
      "max": [
        1.0,
        0.0,
        0.0,
        0.0
      ],
      "min": [
        1.0,
        0.0,
        0.0,
        0.0
      ],
      "type": "VEC4"
    },
    {
      "bufferView": 0,
      "byteOffset": 12112,
      "componentType": 5123,
      "count": 146,
      "type": "VEC4"
    },
    {
      "bufferView": 4,
      "byteOffset": 24224,
      "componentType": 5126,
      "count": 146,
      "max": [
        1.0,
        0.0,
        0.0,
        0.0
      ],
      "min": [
        1.0,
        0.0,
        0.0,
        0.0
      ],
      "type": "VEC4"
    },
    {
      "bufferView": 0,
      "byteOffset": 13280,
      "componentType": 5123,
      "count": 334,
      "type": "VEC4"
    },
    {
      "bufferView": 4,
      "byteOffset": 26560,
      "componentType": 5126,
      "count": 334,
      "max": [
        1.0,
        0.0,
        0.0,
        0.0
      ],
      "min": [
        1.0,
        0.0,
        0.0,
        0.0
      ],
      "type": "VEC4"
    }
  ],
  "asset": {
    "extras": {
      "author": "Gorrimations (https://sketchfab.com/un_rendem123)",
      "license": "CC-BY-4.0 (http://creativecommons.org/licenses/by/4.0/)",
      "source": "https://sketchfab.com/3d-models/laa-laa-700b19ff881c46fc873e30b11257049f",
      "title": "Laa-laa"
    },
    "generator": "Sketchfab-0.3.0",
    "version": "2.0"
  },
  "bufferViews": [
    {
      "buffer": 0,
      "byteLength": 15952,
      "byteStride": 8,
      "name": "shortBufferViews",
      "target": 34962
    },
    {
      "buffer": 0,
      "byteLength": 38436,
      "byteOffset": 15952,
      "name": "floatBufferViews",
      "target": 34963
    },
    {
      "buffer": 0,
      "byteLength": 15952,
      "byteOffset": 54388,
      "byteStride": 8,
      "name": "floatBufferViews",
      "target": 34962
    },
    {
      "buffer": 0,
      "byteLength": 47856,
      "byteOffset": 70340,
      "byteStride": 12,
      "name": "floatBufferViews",
      "target": 34962
    },
    {
      "buffer": 0,
      "byteLength": 31904,
      "byteOffset": 118196,
      "byteStride": 16,
      "name": "floatBufferViews",
      "target": 34962
    },
    {
      "buffer": 0,
      "byteLength": 3584,
      "byteOffset": 150100,
      "name": "floatBufferViews"
    }
  ],
  "buffers": [
    {
      "byteLength": 153684,
      "uri": "scene.bin"
    }
  ],
  "images": [
    {
      "uri": "textures/material_baseColor.png"
    },
    {
      "uri": "textures/Face_And_TV_baseColor.png"
    },
    {
      "uri": "textures/material_2_baseColor.png"
    }
  ],
  "materials": [
    {
      "doubleSided": true,
      "name": "material",
      "pbrMetallicRoughness": {
        "baseColorTexture": {
          "index": 0
        },
        "metallicFactor": 0.0
      }
    },
    {
      "doubleSided": true,
      "name": "Face_And_TV",
      "pbrMetallicRoughness": {
        "baseColorTexture": {
          "index": 1
        },
        "metallicFactor": 0.0
      }
    },
    {
      "doubleSided": true,
      "name": "material_2",
      "pbrMetallicRoughness": {
        "baseColorTexture": {
          "index": 2
        },
        "metallicFactor": 0.0,
        "roughnessFactor": 0.25
      }
    }
  ],
  "meshes": [
    {
      "name": "Antenna_Fur_0",
      "primitives": [
        {
          "attributes": {
            "JOINTS_0": 25,
            "NORMAL": 1,
            "POSITION": 0,
            "TEXCOORD_0": 2,
            "WEIGHTS_0": 26
          },
          "indices": 3,
          "material": 0,
          "mode": 4
        }
      ]
    },
    {
      "name": "Body_Fur_0",
      "primitives": [
        {
          "attributes": {
            "JOINTS_0": 27,
            "NORMAL": 5,
            "POSITION": 4,
            "TEXCOORD_0": 6,
            "WEIGHTS_0": 28
          },
          "indices": 7,
          "material": 0,
          "mode": 4
        }
      ]
    },
    {
      "name": "Body_Face And TV_0",
      "primitives": [
        {
          "attributes": {
            "JOINTS_0": 29,
            "NORMAL": 9,
            "POSITION": 8,
            "TEXCOORD_0": 10,
            "WEIGHTS_0": 30
          },
          "indices": 11,
          "material": 1,
          "mode": 4
        }
      ]
    },
    {
      "name": "Eyelid Down_Face And TV_0",
      "primitives": [
        {
          "attributes": {
            "JOINTS_0": 31,
            "NORMAL": 13,
            "POSITION": 12,
            "TEXCOORD_0": 14,
            "WEIGHTS_0": 32
          },
          "indices": 15,
          "material": 1,
          "mode": 4
        }
      ]
    },
    {
      "name": "Eyelid Up_Face And TV_0",
      "primitives": [
        {
          "attributes": {
            "JOINTS_0": 33,
            "NORMAL": 17,
            "POSITION": 16,
            "TEXCOORD_0": 18,
            "WEIGHTS_0": 34
          },
          "indices": 19,
          "material": 1,
          "mode": 4
        }
      ]
    },
    {
      "name": "Eyes_Eye_0",
      "primitives": [
        {
          "attributes": {
            "JOINTS_0": 35,
            "NORMAL": 21,
            "POSITION": 20,
            "TEXCOORD_0": 22,
            "WEIGHTS_0": 36
          },
          "indices": 23,
          "material": 2,
          "mode": 4
        }
      ]
    }
  ],
  "nodes": [
    {
      "children": [
        1
      ],
      "matrix": [
        1.0,
        0.0,
        0.0,
        0.0,
        0.0,
        2.220446049250313e-16,
        -1.0,
        0.0,
        0.0,
        1.0,
        2.220446049250313e-16,
        0.0,
        0.0,
        0.0,
        0.0,
        1.0
      ],
      "name": "Sketchfab_model"
    },
    {
      "children": [
        2
      ],
      "matrix": [
        0.009999999776482582,
        0.0,
        0.0,
        0.0,
        0.0,
        0.0,
        0.009999999776482582,
        0.0,
        0.0,
        -0.009999999776482582,
        0.0,
        0.0,
        0.0,
        0.0,
        0.0,
        1.0
      ],
      "name": "e7581985463c4f40a3d755555158028b.fbx"
    },
    {
      "children": [
        3
      ],
      "name": "RootNode"
    },
    {
      "children": [
        4
      ],
      "matrix": [
        100.0,
        0.0,
        0.0,
        0.0,
        0.0,
        -1.629206793918314e-05,
        -99.99999999999868,
        0.0,
        0.0,
        99.99999999999868,
        -1.629206793918314e-05,
        0.0,
        0.0,
        0.0,
        0.0,
        1.0
      ],
      "name": "Laa-laa"
    },
    {
      "children": [
        5,
        7,
        9,
        10,
        12,
        14,
        16,
        6,
        8,
        11,
        13,
        15
      ],
      "name": "Object_4"
    },
    {
      "children": [
        17
      ],
      "name": "_rootJoint"
    },
    {
      "matrix": [
        3.7058651447296143,
        0.0,
        0.0,
        0.0,
        0.0,
        2.2691879437824327e-16,
        -3.7058651447296143,
        0.0,
        0.0,
        3.7058651447296143,
        2.2691879437824327e-16,
        0.0,
        3.8718365132808685,
        481.47172927856445,
        11.113587021827698,
        1.0
      ],
      "name": "Object_6"
    },
    {
      "mesh": 0,
      "name": "Object_7",
      "skin": 0
    },
    {
      "matrix": [
        100.0,
        0.0,
        0.0,
        0.0,
        0.0,
        6.123233995736766e-15,
        -100.0,
        0.0,
        0.0,
        100.0,
        6.123233995736766e-15,
        0.0,
        0.0,
        0.0,
        0.0,
        1.0
      ],
      "name": "Object_8"
    },
    {
      "mesh": 1,
      "name": "Object_9",
      "skin": 0
    },
    {
      "mesh": 2,
      "name": "Object_10",
      "skin": 0
    },
    {
      "matrix": [
        14.540615677833557,
        0.0,
        0.0,
        0.0,
        0.0,
        14.540615677833555,
        6.355905135535523e-07,
        0.0,
        0.0,
        -6.355905135535523e-07,
        14.540615677833555,
        0.0,
        -21.578338742256165,
        417.4541473388672,
        62.25970387458801,
        1.0
      ],
      "name": "Object_11"
    },
    {
      "mesh": 3,
      "name": "Object_12",
      "skin": 0
    },
    {
      "matrix": [
        14.540615677833557,
        0.0,
        0.0,
        0.0,
        0.0,
        14.540615677833555,
        6.355905135535523e-07,
        0.0,
        0.0,
        -6.355905135535523e-07,
        14.540615677833555,
        0.0,
        -21.578338742256165,
        417.4541473388672,
        62.25970387458801,
        1.0
      ],
      "name": "Object_13"
    },
    {
      "mesh": 4,
      "name": "Object_14",
      "skin": 0
    },
    {
      "matrix": [
        13.979727029800415,
        0.0,
        0.0,
        0.0,
        0.0,
        13.979727029800413,
        6.11073280865071e-07,
        0.0,
        0.0,
        -6.11073280865071e-07,
        13.979727029800413,
        0.0,
        -21.578338742256165,
        417.4541473388672,
        62.25970387458801,
        1.0
      ],
      "name": "Object_15"
    },
    {
      "mesh": 5,
      "name": "Object_16",
      "skin": 0
    },
    {
      "children": [
        18
      ],
      "name": "Move All_00",
      "rotation": [
        -5.785154070170739e-31,
        1.3234889800848443e-23,
        1.0,
        -4.371138828673793e-08
      ]
    },
    {
      "children": [
        19,
        62,
        67
      ],
      "name": "Body 1_01",
      "rotation": [
        6.364793136981461e-08,
        0.7306186556816101,
        0.6827857494354248,
        -3.4695382677973896e-10
      ],
      "scale": [
        1.0,
        1.0000004768371582,
        1.0000001192092896
      ],
      "translation": [
        4.257474817137563e-09,
        -0.030015945434570313,
        1.6058127880096436
      ]
    },
    {
      "children": [
        20,
        28,
        36
      ],
      "name": "Body 2_02",
      "rotation": [
        0.006666312925517559,
        4.1598454458835477e-08,
        -7.2370225367990315e-09,
        0.9999777674674988
      ],
      "translation": [
        -1.3322676295501878e-15,
        0.8020583987236023,
        -2.60770320892334e-08
      ]
    },
    {
      "children": [
        21
      ],
      "name": "Arm R1_03",
      "rotation": [
        0.5189864635467529,
        -0.5150618553161621,
        -0.474948525428772,
        -0.48968175053596497
      ],
      "scale": [
        1.0,
        1.0000001192092896,
        1.0
      ],
      "translation": [
        -0.6157158017158508,
        0.7892100214958191,
        0.02299117110669613
      ]
    },
    {
      "children": [
        22
      ],
      "name": "Arm R2_04",
      "rotation": [
        0.0001543299586046487,
        -4.81600821444772e-08,
        0.013234025798738003,
        0.999912440776825
      ],
      "scale": [
        0.9999998807907104,
        0.9999998807907104,
        0.9999999403953552
      ],
      "translation": [
        5.587935447692871e-09,
        0.7556165456771851,
        2.1653249859809875e-08
      ]
    },
    {
      "children": [
        23,
        26
      ],
      "name": "Hand R_05",
      "rotation": [
        0.06485237181186676,
        0.005925024393945932,
        0.0026137817185372114,
        0.997873842716217
      ],
      "scale": [
        0.9999998807907104,
        0.9999998211860657,
        0.9999999403953552
      ],
      "translation": [
        -7.450580596923828e-09,
        0.7555180788040161,
        -3.015156835317612e-08
      ]
    },
    {
      "children": [
        24
      ],
      "name": "Fingers R1_06",
      "rotation": [
        -0.0514182411134243,
        -0.019846191629767418,
        -0.006147315260022879,
        0.9984610676765442
      ],
      "scale": [
        0.9999999403953552,
        1.0,
        1.0
      ],
      "translation": [
        0.0008588457712903619,
        0.35017484426498413,
        -0.008456820622086525
      ]
    },
    {
      "children": [
        25
      ],
      "name": "Fingers R2_07",
      "rotation": [
        9.220455012837192e-07,
        -9.246440413335222e-07,
        -3.5774341711203306e-08,
        1.0
      ],
      "scale": [
        1.0000001192092896,
        1.0000001192092896,
        1.0000001192092896
      ],
      "translation": [
        1.0710209608078003e-08,
        0.1352902352809906,
        3.4458935260772705e-08
      ]
    },
    {
      "name": "Fingers R2_end_037",
      "rotation": [
        -8.1007120876298085e-19,
        2.3865399239441885e-38,
        -2.9460864696688634e-20,
        1.0
      ],
      "translation": [
        2.7755575615628914e-17,
        0.13529016077518463,
        0.0
      ]
    },
    {
      "children": [
        27
      ],
      "name": "Thumb R_08",
      "rotation": [
        -0.05019551143050194,
        0.04972140118479729,
        0.7002646923065186,
        0.7103784680366516
      ],
      "scale": [
        1.0000001192092896,
        0.9999999403953552,
        0.9999998807907104
      ],
      "translation": [
        -0.18209868669509888,
        0.16437137126922607,
        0.0101057393476367
      ]
    },
    {
      "name": "Thumb R_end_038",
      "rotation": [
        2.6469779601696886e-23,
        2.033760564256299e-23,
        -0.0,
        1.0
      ],
      "translation": [
        -4.440892098500626e-16,
        0.1691390872001648,
        0.0
      ]
    },
    {
      "children": [
        29
      ],
      "name": "Arm L1_09",
      "rotation": [
        0.5189864635467529,
        0.5150618553161621,
        0.474948525428772,
        -0.48968175053596497
      ],
      "scale": [
        1.0,
        1.0000001192092896,
        1.0
      ],
      "translation": [
        0.6157158017158508,
        0.7892100811004639,
        0.022991159930825233
      ]
    },
    {
      "children": [
        30
      ],
      "name": "Arm L2_010",
      "rotation": [
        0.0001543283142382279,
        5.934427704801237e-08,
        -0.013234027661383152,
        0.999912440776825
      ],
      "scale": [
        0.9999998807907104,
        0.9999998807907104,
        0.9999999403953552
      ],
      "translation": [
        3.725290298461914e-09,
        0.7556164860725403,
        1.594889909029007e-08
      ]
    },
    {
      "children": [
        31,
        34
      ],
      "name": "Hand L_011",
      "rotation": [
        0.06485237926244736,
        -0.005925023928284645,
        -0.002613780554383993,
        0.997873842716217
      ],
      "scale": [
        0.9999998807907104,
        0.9999998211860657,
        0.9999999403953552
      ],
      "translation": [
        7.450580596923828e-09,
        0.7555180788040161,
        -3.2014213502407074e-08
      ]
    },
    {
      "children": [
        32
      ],
      "name": "Fingers L1_012",
      "rotation": [
        -0.0514182411134243,
        0.019846191629767418,
        0.006147315260022879,
        0.9984610676765442
      ],
      "scale": [
        0.9999999403953552,
        1.0,
        1.0
      ],
      "translation": [
        -0.0008588487980887294,
        0.3501746356487274,
        -0.008456818759441376
      ]
    },
    {
      "children": [
        33
      ],
      "name": "Fingers L2_013",
      "rotation": [
        9.220514129992807e-07,
        9.227841246683965e-07,
        3.573069307094556e-08,
        1.0
      ],
      "scale": [
        1.0000001192092896,
        1.0000001192092896,
        1.0000001192092896
      ],
      "translation": [
        3.725290298461914e-09,
        0.13529027998447418,
        3.4924596548080444e-08
      ]
    },
    {
      "name": "Fingers L2_end_039",
      "rotation": [
        -6.925661082057911e-18,
        -3.469446951953614e-18,
        -1.2199921418422095e-19,
        1.0
      ],
      "translation": [
        -1.3877787807814457e-17,
        0.13529016077518463,
        4.440892098500626e-16
      ]
    },
    {
      "children": [
        35
      ],
      "name": "Thumb L_014",
      "rotation": [
        -0.05019552260637283,
        -0.04972141236066818,
        -0.7002647519111633,
        0.7103784084320068
      ],
      "scale": [
        1.0000001192092896,
        0.9999999403953552,
        0.9999998807907104
      ],
      "translation": [
        0.18209868669509888,
        0.16437113285064697,
        0.010105743072926998
      ]
    },
    {
      "name": "Thumb L_end_040",
      "rotation": [
        -1.3234889800848443e-23,
        2.5806814586061906e-23,
        -1.3234889800848443e-23,
        1.0
      ],
      "translation": [
        -4.440892098500626e-16,
        0.1691390872001648,
        0.0
      ]
    },
    {
      "children": [
        37,
        39,
        41,
        43,
        45,
        47,
        49,
        51,
        53,
        55,
        58,
        60
      ],
      "name": "Head_015",
      "rotation": [
        -0.03560175374150276,
        4.448931889555752e-09,
        4.405650511074555e-09,
        0.999366044998169
      ],
      "translation": [
        -1.22979693095715e-09,
        1.1368619203567505,
        -0.010210707783699036
      ]
    },
    {
      "children": [
        38
      ],
      "name": "Mouth R_016",
      "rotation": [
        -0.004886174108833075,
        2.712427592162181e-18,
        -1.2955410190349923e-20,
        0.9999880790710449
      ],
      "scale": [
        1.0,
        0.9999999403953552,
        1.0
      ],
      "translation": [
        -0.21081659197807312,
        0.3162386417388916,
        0.5425844788551331
      ]
    },
    {
      "name": "Mouth R_end_041",
      "rotation": [
        5.293955920339377e-23,
        6.617444900424222e-24,
        9.693065264030765e-24,
        1.0
      ],
      "translation": [
        0.0,
        0.11604094505310059,
        0.0
      ]
    },
    {
      "children": [
        40
      ],
      "name": "Mouth L_017",
      "rotation": [
        -0.004886174108833075,
        2.712427592162181e-18,
        -1.2955410190349923e-20,
        0.9999880790710449
      ],
      "scale": [
        1.0,
        0.9999999403953552,
        1.0
      ],
      "translation": [
        0.21081659197807312,
        0.3162386417388916,
        0.5425845384597778
      ]
    },
    {
      "name": "Mouth L_end_042",
      "rotation": [
        5.293955920339377e-23,
        6.617444900424222e-24,
        9.693065264030765e-24,
        1.0
      ],
      "translation": [
        0.0,
        0.11604094505310059,
        0.0
      ]
    },
    {
      "children": [
        42
      ],
      "name": "Eyelid Down R_018",
      "rotation": [
        0.9999880790710449,
        -1.295508303395531e-20,
        -2.7125136189458867e-18,
        0.004886444658041
      ],
      "scale": [
        1.0,
        0.9999999403953552,
        1.0
      ],
      "translation": [
        -0.2357833832502365,
        0.6395611763000488,
        0.5103643536567688
      ]
    },
    {
      "name": "Eyelid Down R_end_043",
      "rotation": [
        -3.308722450212111e-24,
        6.617444900424222e-24,
        -2.3695590878584343e-24,
        1.0
      ],
      "translation": [
        -2.7755575615628914e-17,
        0.14540624618530273,
        0.0
      ]
    },
    {
      "children": [
        44
      ],
      "name": "Eye R_019",
      "rotation": [
        -6.181502243407522e-08,
        0.7105535864830017,
        0.7036430835723877,
        3.0353644597802543e-10
      ],
      "scale": [
        1.0,
        1.0,
        0.9999999403953552
      ],
      "translation": [
        -0.2357833832502365,
        0.6395611763000488,
        0.5103643536567688
      ]
    },
    {
      "name": "Eye R_end_044",
      "rotation": [
        -1.3234889800848443e-23,
        5.447985429704849e-24,
        5.169878828456423e-26,
        1.0
      ],
      "translation": [
        0.0,
        0.13979727029800415,
        -8.881784197001252e-16
      ]
    },
    {
      "children": [
        46
      ],
      "name": "Eyelid Up R_020",
      "rotation": [
        -0.004886284936219454,
        2.7124606793866833e-18,
        -1.2955258325159337e-20,
        0.9999880790710449
      ],
      "scale": [
        1.0,
        0.9999999403953552,
        1.0
      ],
      "translation": [
        -0.2357833832502365,
        0.6395611763000488,
        0.5103643536567688
      ]
    },
    {
      "name": "Eyelid Up R_end_045",
      "rotation": [
        -5.293955920339377e-23,
        0.0,
        -1.8687594196488324e-24,
        1.0
      ],
      "translation": [
        0.0,
        0.14540624618530273,
        1.1102230246251565e-16
      ]
    },
    {
      "children": [
        48
      ],
      "name": "Eyelid Down L_021",
      "rotation": [
        0.9999880790710449,
        -1.295508303395531e-20,
        -2.7125136189458867e-18,
        0.004886444658041
      ],
      "scale": [
        1.0,
        0.9999999403953552,
        1.0
      ],
      "translation": [
        0.2357833832502365,
        0.6395611763000488,
        0.5103643536567688
      ]
    },
    {
      "name": "Eyelid Down L_end_046",
      "rotation": [
        -3.308722450212111e-24,
        6.617444900424222e-24,
        -2.3695590878584343e-24,
        1.0
      ],
      "translation": [
        0.0,
        0.14540624618530273,
        0.0
      ]
    },
    {
      "children": [
        50
      ],
      "name": "Eye L_022",
      "rotation": [
        -6.181502243407522e-08,
        0.7105535864830017,
        0.7036430835723877,
        3.0353644597802543e-10
      ],
      "scale": [
        1.0,
        1.0,
        0.9999999403953552
      ],
      "translation": [
        0.2357833832502365,
        0.6395611763000488,
        0.5103643536567688
      ]
    },
    {
      "name": "Eye L_end_047",
      "rotation": [
        -1.3234889800848443e-23,
        5.447985429704849e-24,
        5.169878828456423e-26,
        1.0
      ],
      "translation": [
        -2.7755575615628914e-17,
        0.13979727029800415,
        0.0
      ]
    },
    {
      "children": [
        52
      ],
      "name": "Eyelid Up L_023",
      "rotation": [
        -0.004886284936219454,
        2.7124606793866833e-18,
        -1.2955258325159337e-20,
        0.9999880790710449
      ],
      "scale": [
        1.0,
        0.9999999403953552,
        1.0
      ],
      "translation": [
        0.2357833832502365,
        0.6395611763000488,
        0.5103643536567688
      ]
    },
    {
      "name": "Eyelid Up L_end_048",
      "rotation": [
        -5.293955920339377e-23,
        0.0,
        -1.8687594196488324e-24,
        1.0
      ],
      "translation": [
        5.551115123125783e-17,
        0.14540624618530273,
        1.1102230246251565e-16
      ]
    },
    {
      "children": [
        54
      ],
      "name": "Mouth Down_024",
      "rotation": [
        0.8672739863395691,
        1.7803832008667086e-07,
        3.101613970102335e-07,
        0.4978311359882355
      ],
      "translation": [
        -5.492669849765236e-16,
        0.30584824085235596,
        0.5026841163635254
      ]
    },
    {
      "name": "Mouth Down_end_049",
      "rotation": [
        -5.551115123125783e-17,
        -5.293955920339377e-23,
        -2.6469779601696886e-23,
        1.0
      ],
      "translation": [
        0.0,
        0.16419962048530579,
        0.0
      ]
    },
    {
      "children": [
        56
      ],
      "name": "Mouth Up_025",
      "rotation": [
        0.5993863940238953,
        1.908448439280619e-06,
        1.4290509398051654e-06,
        0.8004598021507263
      ],
      "translation": [
        -5.492669849765236e-16,
        0.30584824085235596,
        0.5026841163635254
      ]
    },
    {
      "children": [
        57
      ],
      "name": "Nose_026",
      "rotation": [
        -0.6032905578613281,
        -1.9014424879060243e-06,
        -1.4383598454514868e-06,
        0.7975214719772339
      ],
      "scale": [
        1.0,
        0.9999999403953552,
        1.0
      ],
      "translation": [
        6.737731723660545e-07,
        0.3034125566482544,
        -0.14129984378814697
      ]
    },
    {
      "name": "Nose_end_050",
      "rotation": [
        0.0,
        0.0,
        2.5356687398099175e-24,
        1.0
      ],
      "translation": [
        -5.293955920339377e-23,
        0.14540624618530273,
        0.0
      ]
    },
    {
      "children": [
        59
      ],
      "name": "Frown L_027",
      "rotation": [
        -0.004886247683316469,
        2.712454061941783e-18,
        -1.2955288213521314e-20,
        0.9999880790710449
      ],
      "scale": [
        1.0,
        0.9999999403953552,
        1.0
      ],
      "translation": [
        0.20928338170051575,
        0.8488292098045349,
        0.5866302847862244
      ]
    },
    {
      "name": "Frown L_end_051",
      "rotation": [
        0.0,
        -6.617444900424222e-24,
        3.4119969644800247e-25,
        1.0
      ],
      "translation": [
        0.0,
        0.17669677734375,
        -1.1102230246251565e-16
      ]
    },
    {
      "children": [
        61
      ],
      "name": "Frown R_028",
      "rotation": [
        -0.004886247683316469,
        2.712454061941783e-18,
        -1.2955288213521314e-20,
        0.9999880790710449
      ],
      "scale": [
        1.0,
        0.9999999403953552,
        1.0
      ],
      "translation": [
        -0.20928338170051575,
        0.8488292098045349,
        0.5866302847862244
      ]
    },
    {
      "name": "Frown R_end_052",
      "rotation": [
        0.0,
        -6.617444900424222e-24,
        3.4119969644800247e-25,
        1.0
      ],
      "translation": [
        0.0,
        0.17669677734375,
        -1.1102230246251565e-16
      ]
    },
    {
      "children": [
        63
      ],
      "name": "Leg R1_029",
      "rotation": [
        0.9983856081962585,
        -0.011320671997964382,
        -0.010579703375697136,
        -0.054644875228405
      ],
      "scale": [
        1.0000001192092896,
        1.0000001192092896,
        1.000002384185791
      ],
      "translation": [
        -0.3999181091785431,
        -0.44171440601348877,
        0.23336103558540344
      ]
    },
    {
      "children": [
        64
      ],
      "name": "Leg R2_030",
      "rotation": [
        0.0022346084006130695,
        0.005517906509339809,
        -0.002439959440380335,
        0.9999793171882629
      ],
      "scale": [
        1.0,
        0.9999999403953552,
        1.0
      ],
      "translation": [
        7.683411240577698e-09,
        0.39763760566711426,
        7.450580596923828e-09
      ]
    },
    {
      "children": [
        65
      ],
      "name": "Foot R_031",
      "rotation": [
        -0.0026996496599167585,
        -0.6401178240776062,
        0.768206000328064,
        0.010082206688821316
      ],
      "scale": [
        0.9999999403953552,
        1.0,
        1.0
      ],
      "translation": [
        -6.56291376799345e-09,
        0.4986765384674072,
        -1.1641532182693481e-09
      ]
    },
    {
      "children": [
        66
      ],
      "name": "Toe R_032",
      "rotation": [
        1.8068790907932453e-08,
        0.7071070671081543,
        0.7071065306663513,
        -8.870133427762994e-08
      ],
      "translation": [
        8.166133547149457e-09,
        0.6008126735687256,
        -0.09661261737346649
      ]
    },
    {
      "name": "Toe R_end_053",
      "rotation": [
        -1.401298464324817e-45,
        -5.293955920339377e-23,
        -2.3138994289687554e-23,
        1.0
      ],
      "translation": [
        0.0,
        0.4143545627593994,
        0.0
      ]
    },
    {
      "children": [
        68
      ],
      "name": "Leg L1_033",
      "rotation": [
        0.9983856081962585,
        0.011320678517222404,
        0.010579613968729973,
        -0.054644875228405
      ],
      "scale": [
        1.0000001192092896,
        1.0,
        1.000002384185791
      ],
      "translation": [
        0.3999181091785431,
        -0.44171440601348877,
        0.23336099088191986
      ]
    },
    {
      "children": [
        69
      ],
      "name": "Leg L2_034",
      "rotation": [
        0.00223461608402431,
        -0.005517908371984959,
        0.0024399764370173216,
        0.9999793171882629
      ],
      "translation": [
        -1.0943040251731873e-08,
        0.39763757586479187,
        -3.725290298461914e-09
      ]
    },
    {
      "children": [
        70
      ],
      "name": "Foot L_035",
      "rotation": [
        0.0026996491942554712,
        -0.6401178240776062,
        0.768206000328064,
        -0.010082206688821316
      ],
      "scale": [
        1.0,
        1.0000001192092896,
        1.0000001192092896
      ],
      "translation": [
        6.56291376799345e-09,
        0.4986765384674072,
        -3.026798367500305e-09
      ]
    },
    {
      "children": [
        71
      ],
      "name": "Toe L_036",
      "rotation": [
        -1.8109950872258196e-08,
        0.7071069478988647,
        0.7071066498756409,
        8.866018674780207e-08
      ],
      "translation": [
        -8.757814029536348e-09,
        0.6008126735687256,
        -0.09661261737346649
      ]
    },
    {
      "name": "Toe L_end_054",
      "rotation": [
        -3.308722450212111e-24,
        2.6469779601696886e-23,
        1.2724010856852832e-24,
        1.0
      ],
      "translation": [
        5.551115123125783e-17,
        0.4143545627593994,
        0.0
      ]
    }
  ],
  "samplers": [
    {
      "magFilter": 9729,
      "minFilter": 9987,
      "wrapS": 10497,
      "wrapT": 10497
    }
  ],
  "scene": 0,
  "scenes": [
    {
      "name": "Sketchfab_Scene",
      "nodes": [
        0
      ]
    }
  ],
  "skins": [
    {
      "inverseBindMatrices": 24,
      "joints": [
        5,
        17,
        18,
        19,
        20,
        21,
        22,
        23,
        24,
        25,
        26,
        27,
        28,
        29,
        30,
        31,
        32,
        33,
        34,
        35,
        36,
        37,
        38,
        39,
        40,
        41,
        42,
        43,
        44,
        45,
        46,
        47,
        48,
        49,
        50,
        51,
        52,
        53,
        54,
        55,
        56,
        57,
        58,
        59,
        60,
        61,
        62,
        63,
        64,
        65,
        66,
        67,
        68,
        69,
        70,
        71
      ],
      "skeleton": 5
    }
  ],
  "textures": [
    {
      "sampler": 0,
      "source": 0
    },
    {
      "sampler": 0,
      "source": 1
    },
    {
      "sampler": 0,
      "source": 2
    }
  ]
}
