{
  "accessors": [
    {
      "bufferView": 2,
      "componentType": 5126,
      "count": 10514,
      "max": [
        0.08263799548149109,
        0.12738561630249023,
        0.10270904749631882
      ],
      "min": [
        -0.08263799548149109,
        -0.12599794566631317,
        -0.08263798803091049
      ],
      "type": "VEC3"
    },
    {
      "bufferView": 2,
      "byteOffset": 126168,
      "componentType": 5126,
      "count": 10514,
      "max": [
        1.0,
        1.0,
        1.0
      ],
      "min": [
        -1.0,
        -1.0,
        -1.0
      ],
      "type": "VEC3"
    },
    {
      "bufferView": 3,
      "componentType": 5126,
      "count": 10514,
      "max": [
        1.0,
        1.0,
        1.0,
        1.0
      ],
      "min": [
        -1.0,
        -1.0,
        -1.0,
        -1.0
      ],
      "type": "VEC4"
    },
    {
      "bufferView": 1,
      "componentType": 5126,
      "count": 10514,
      "max": [
        0.9935525059700012,
        0.992982804775238
      ],
      "min": [
        0.0036582970060408115,
        0.0036635559517890215
      ],
      "type": "VEC2"
    },
    {
      "bufferView": 1,
      "byteOffset": 84112,
      "componentType": 5126,
      "count": 10514,
      "max": [
        0.9935525059700012,
        0.992982804775238
      ],
      "min": [
        0.0036582970060408115,
        0.0036635559517890215
      ],
      "type": "VEC2"
    },
    {
      "bufferView": 0,
      "componentType": 5125,
      "count": 51834,
      "type": "SCALAR"
    },
    {
      "bufferView": 2,
      "byteOffset": 252336,
      "componentType": 5126,
      "count": 916,
      "max": [
        0.06895079463720322,
        0.08503346890211105,
        0.0689508467912674
      ],
      "min": [
        -0.06895080953836441,
        -0.11722980439662933,
        -0.06895075738430023
      ],
      "type": "VEC3"
    },
    {
      "bufferView": 2,
      "byteOffset": 263328,
      "componentType": 5126,
      "count": 916,
      "max": [
        0.9980760812759399,
        1.0,
        1.0
      ],
      "min": [
        -1.0,
        -1.0,
        -1.0
      ],
      "type": "VEC3"
    },
    {
      "bufferView": 3,
      "byteOffset": 168224,
      "componentType": 5126,
      "count": 916,
      "max": [
        1.0,
        0.8547999858856201,
        0.9999986886978149,
        1.0
      ],
      "min": [
        -1.0,
        -0.9999987483024597,
        -0.9807969331741333,
        -1.0
      ],
      "type": "VEC4"
    },
    {
      "bufferView": 1,
      "byteOffset": 168224,
      "componentType": 5126,
      "count": 916,
      "max": [
        0.8234808444976807,
        0.9173873066902161
      ],
      "min": [
        0.004901079926639795,
        0.0038465126417577267
      ],
      "type": "VEC2"
    },
    {
      "bufferView": 1,
      "byteOffset": 175552,
      "componentType": 5126,
      "count": 916,
      "max": [
        0.8234808444976807,
        0.9173873066902161
      ],
      "min": [
        0.004901079926639795,
        0.0038465126417577267
      ],
      "type": "VEC2"
    },
    {
      "bufferView": 0,
      "byteOffset": 207336,
      "componentType": 5125,
      "count": 4572,
      "type": "SCALAR"
    }
  ],
  "asset": {
    "extras": {
      "author": "Console Art Cybernetic (https://sketchfab.com/cacybernetic)",
      "license": "SKETCHFAB Standard (https://sketchfab.com/licenses)",
      "source": "https://sketchfab.com/3d-models/portable-searchlight-4309814bd41c448f8da07871b7bddfbc",
      "title": "Portable Searchlight"
    },
    "generator": "Sketchfab-17.17.0",
    "version": "2.0"
  },
  "bufferViews": [
    {
      "buffer": 0,
      "byteLength": 225624,
      "name": "floatBufferViews",
      "target": 34963
    },
    {
      "buffer": 0,
      "byteLength": 182880,
      "byteOffset": 225624,
      "byteStride": 8,
      "name": "floatBufferViews",
      "target": 34962
    },
    {
      "buffer": 0,
      "byteLength": 274320,
      "byteOffset": 408504,
      "byteStride": 12,
      "name": "floatBufferViews",
      "target": 34962
    },
    {
      "buffer": 0,
      "byteLength": 182880,
      "byteOffset": 682824,
      "byteStride": 16,
      "name": "floatBufferViews",
      "target": 34962
    }
  ],
  "buffers": [
    {
      "byteLength": 865704,
      "uri": "scene.bin"
    }
  ],
  "images": [
    {
      "uri": "textures/body_baseColor.jpeg"
    },
    {
      "uri": "textures/body_metallicRoughness.png"
    },
    {
      "uri": "textures/body_normal.png"
    },
    {
      "uri": "textures/glass_baseColor.png"
    }
  ],
  "materials": [
    {
      "doubleSided": true,
      "name": "body",
      "normalTexture": {
        "index": 2
      },
      "occlusionTexture": {
        "index": 1
      },
      "pbrMetallicRoughness": {
        "baseColorTexture": {
          "index": 0
        },
        "metallicRoughnessTexture": {
          "index": 1
        }
      }
    },
    {
      "alphaMode": "BLEND",
      "doubleSided": true,
      "name": "glass",
      "normalTexture": {
        "index": 2
      },
      "occlusionTexture": {
        "index": 1
      },
      "pbrMetallicRoughness": {
        "baseColorTexture": {
          "index": 3
        },
        "metallicRoughnessTexture": {
          "index": 1
        }
      }
    }
  ],
  "meshes": [
    {
      "name": "portable_searchlight_body_0",
      "primitives": [
        {
          "attributes": {
            "NORMAL": 1,
            "POSITION": 0,
            "TANGENT": 2,
            "TEXCOORD_0": 3,
            "TEXCOORD_1": 4
          },
          "indices": 5,
          "material": 0,
          "mode": 4
        }
      ]
    },
    {
      "name": "portable_searchlight_glass_0",
      "primitives": [
        {
          "attributes": {
            "NORMAL": 7,
            "POSITION": 6,
            "TANGENT": 8,
            "TEXCOORD_0": 9,
            "TEXCOORD_1": 10
          },
          "indices": 11,
          "material": 1,
          "mode": 4
        }
      ]
    }
  ],
  "nodes": [
    {
      "children": [
        1
      ],
      "matrix": [
        1.0,
        0.0,
        0.0,
        0.0,
        0.0,
        2.220446049250313e-16,
        -1.0,
        0.0,
        0.0,
        1.0,
        2.220446049250313e-16,
        0.0,
        0.0,
        0.0,
        0.0,
        1.0
      ],
      "name": "Sketchfab_model"
    },
    {
      "children": [
        2
      ],
      "matrix": [
        0.009999999776482582,
        0.0,
        0.0,
        0.0,
        0.0,
        0.0,
        0.009999999776482582,
        0.0,
        0.0,
        -0.009999999776482582,
        0.0,
        0.0,
        0.0,
        0.0,
        0.0,
        1.0
      ],
      "name": "87e6a03ff747492c896d19bf34ee024e.fbx"
    },
    {
      "children": [
        3
      ],
      "name": "RootNode"
    },
    {
      "children": [
        4,
        5
      ],
      "matrix": [
        100.0,
        0.0,
        0.0,
        0.0,
        0.0,
        -4.371139006309477e-06,
        -99.9999999999999,
        0.0,
        0.0,
        99.9999999999999,
        -4.371139006309477e-06,
        0.0,
        0.0,
        7.4700398445129395,
        0.0,
        1.0
      ],
      "name": "portable_searchlight"
    },
    {
      "mesh": 0,
      "name": "portable_searchlight_body_0"
    },
    {
      "mesh": 1,
      "name": "portable_searchlight_glass_0"
    }
  ],
  "samplers": [
    {
      "magFilter": 9729,
      "minFilter": 9987,
      "wrapS": 10497,
      "wrapT": 10497
    }
  ],
  "scene": 0,
  "scenes": [
    {
      "name": "Sketchfab_Scene",
      "nodes": [
        0
      ]
    }
  ],
  "textures": [
    {
      "sampler": 0,
      "source": 0
    },
    {
      "sampler": 0,
      "source": 1
    },
    {
      "sampler": 0,
      "source": 2
    },
    {
      "sampler": 0,
      "source": 3
    }
  ]
}
